<?xml version="1.0" encoding="UTF-8"?>
<svg id="Layer_1" data-name="Layer 1" xmlns="http://www.w3.org/2000/svg" version="1.1" viewBox="0 0 144 144">
  <defs>
    <style>
      .cls-1 {
        fill: #64748b;
        stroke-width: 0px;
      }
    </style>
  </defs>
  <path class="cls-1" d="M72.3,22c27.6,0,50,22.4,50,50s-22.4,50-50,50h-.6c-27.6,0-50-22.4-50-50s22.4-50,50-50h.6M72.3,12h-.6c-33.1,0-60,26.9-60,60h0c0,33.1,26.9,60,60,60h.6c33.1,0,60-26.9,60-60h0c0-33.1-26.9-60-60-60h0Z"/>
  <path class="cls-1" d="M89.6,44.4h9.4l-20.5,23.4,24.1,31.8h-18.8l-14.8-19.3-16.9,19.3h-9.4l21.9-25-23.1-30.2h19.3l13.3,17.6,15.4-17.6ZM86.3,94h5.2l-33.5-44.3h-5.6l33.9,44.3Z"/>
</svg>